<?xml version="1.0" standalone="no"?>
<!DOCTYPE svg PUBLIC "-//W3C//DTD SVG 1.1//EN" "http://www.w3.org/Graphics/SVG/1.1/DTD/svg11.dtd">
<svg width="324" height="324" version="1.1" xmlns="http://www.w3.org/2000/svg">
  <title>20 cells diameter theta maze</title>
  <desc>20 cells diameter theta maze generated by The Maze Generator Website (http://www.mazegenerator.net/).</desc>
  <g fill="none" stroke="#000000" stroke-width="2" stroke-linecap="square">
    <path d="M 140.37258300203047,185.62741699796953 A 32,32 0 1,1 163,195" />
    <path d="M 163,115 A 48,48 0 0,1 181.3688047535243,118.65378243945824" />
    <path d="M 196.94112549695427,129.05887450304573 A 48,48 0 0,1 207.34621756054176,181.3688047535243" />
    <path d="M 181.3688047535243,207.34621756054176 A 48,48 0 0,1 129.05887450304573,196.94112549695427" />
    <path d="M 118.65378243945824,181.36880475352433 A 48,48 0 0,1 144.63119524647567,118.65378243945824" />
    <path d="M 138.50826032863421,103.87170991927766 A 64,64 0 0,1 163,99" />
    <path d="M 187.49173967136574,103.87170991927765 A 64,64 0 0,1 208.25483399593904,117.74516600406096" />
    <path d="M 222.12829008072237,138.50826032863427 A 64,64 0 0,1 222.12829008072237,187.49173967136574" />
    <path d="M 208.25483399593904,208.25483399593904 A 64,64 0 0,1 138.50826032863427,222.12829008072237" />
    <path d="M 117.74516600406096,208.25483399593907 A 64,64 0 0,1 103.87170991927766,187.49173967136579" />
    <path d="M 99,163 A 64,64 0 0,1 103.87170991927766,138.50826032863424" />
    <path d="M 163,83 A 80,80 0 0,1 193.61467458920717,89.089637399097057" />
    <path d="M 219.5685424949238,106.4314575050762 A 80,80 0 0,1 229.51756898420362,118.55438135843181" />
    <path d="M 236.91036260090294,132.3853254107928 A 80,80 0 0,1 219.5685424949238,219.5685424949238" />
    <path d="M 207.44561864156816,229.51756898420362 A 80,80 0 0,1 147.39277423870973,241.46282243225843" />
    <path d="M 132.38532541079283,236.91036260090294 A 80,80 0 0,1 118.55438135843184,229.51756898420365" />
    <path d="M 106.43145750507621,219.5685424949238 A 80,80 0 0,1 96.482431015796379,207.44561864156816" />
    <path d="M 84.537177567741566,178.60722576129029 A 80,80 0 0,1 96.482431015796365,118.55438135843184" />
    <path d="M 118.55438135843181,96.482431015796379 A 80,80 0 0,1 147.39277423870971,84.537177567741566" />
    <path d="M 181.72867091354831,68.844613081289879 A 96,96 0 0,1 216.33474236988181,83.178917218955661" />
    <path d="M 230.88225099390854,95.117749006091429 A 96,96 0 0,1 242.82108278104434,109.66525763011819" />
    <path d="M 251.69243512108352,126.26239049295137 A 96,96 0 0,1 257.15538691871012,144.27132908645169" />
    <path d="M 230.88225099390857,230.88225099390854 A 96,96 0 0,1 181.72867091354834,257.15538691871012" />
    <path d="M 144.27132908645169,257.15538691871012 A 96,96 0 0,1 95.117749006091444,230.88225099390857" />
    <path d="M 83.178917218955661,216.33474236988181 A 96,96 0 0,1 67,163.00000000000003" />
    <path d="M 74.30756487891648,126.26239049295137 A 96,96 0 0,1 83.178917218955633,109.66525763011822" />
    <path d="M 95.117749006091429,95.117749006091458 A 96,96 0 0,1 109.66525763011819,83.178917218955661" />
    <path d="M 126.26239049295131,74.3075648789165 A 96,96 0 0,1 144.27132908645166,68.844613081289879" />
    <path d="M 163,51 A 112,112 0 0,1 184.85011606580636,53.152048594838192" />
    <path d="M 256.12459657788509,100.77613390180454 A 112,112 0 0,1 266.4745076412641,120.13945557510994" />
    <path d="M 272.84795140516178,141.14988393419364 A 112,112 0 0,1 275,163" />
    <path d="M 256.12459657788509,225.22386609819543 A 112,112 0 0,1 242.19595949289334,242.19595949289331" />
    <path d="M 225.22386609819543,256.12459657788509 A 112,112 0 0,1 184.85011606580639,272.84795140516178" />
    <path d="M 83.804040507106691,242.19595949289334 A 112,112 0 0,1 53.152048594838192,184.85011606580642" />
    <path d="M 53.152048594838192,141.14988393419364 A 112,112 0 0,1 59.525492358735889,120.13945557510992" />
    <path d="M 100.77613390180454,69.875403422114928 A 112,112 0 0,1 141.14988393419358,53.152048594838206" />
    <path d="M 72.4903320081219,72.490332008121939 A 128,128 0 0,1 163,35" />
    <path d="M 187.97156121806441,37.459484108386505 A 128,128 0 0,1 211.9834793427315,44.7434198385553" />
    <path d="M 234.11298982650908,56.57188962527421 A 128,128 0 0,1 253.50966799187808,72.490332008121911" />
    <path d="M 281.25658016144473,114.0165206572685 A 128,128 0 0,1 288.5405158916135,138.02843878193556" />
    <path d="M 291,163 A 128,128 0 0,1 288.5405158916135,187.97156121806441" />
    <path d="M 269.4281103747258,234.11298982650905 A 128,128 0 0,1 234.11298982650908,269.4281103747258" />
    <path d="M 187.97156121806447,288.5405158916135 A 128,128 0 0,1 163.00000000000003,291" />
    <path d="M 138.02843878193556,288.5405158916135 A 128,128 0 0,1 72.490332008121925,253.5096679918781" />
    <path d="M 44.743419838555312,114.01652065726847 A 128,128 0 0,1 56.571889625274181,91.887010173490964" />
    <path d="M 148.88553179254328,19.693399359203653 A 144,144 0 0,1 177.11446820745672,19.693399359203653" />
    <path d="M 218.10641426057293,29.96134731837472 A 144,144 0 0,1 289.99666206616314,95.118869897056314" />
    <path d="M 296.03865268162531,107.89358573942707 A 144,144 0 0,1 300.79940834543811,121.19900647535744" />
    <path d="M 304.23308037806521,134.90699362967752 A 144,144 0 0,1 307,163" />
    <path d="M 306.30660064079632,177.11446820745672 A 144,144 0 0,1 264.82337649086287,264.82337649086281" />
    <path d="M 254.35263291956494,274.31350528423411 A 144,144 0 0,1 191.09300637032251,304.23308037806521" />
    <path d="M 177.11446820745675,306.30660064079632 A 144,144 0 0,1 163.00000000000003,307" />
    <path d="M 148.88553179254328,306.30660064079632 A 144,144 0 0,1 134.90699362967752,304.23308037806521" />
    <path d="M 107.8935857394271,296.03865268162531 A 144,144 0 0,1 19.693399359203653,177.1144682074567" />
    <path d="M 19,163.00000000000003 A 144,144 0 0,1 19.693399359203653,148.88553179254336" />
    <path d="M 21.766919621934818,134.90699362967752 A 144,144 0 0,1 36.003337933836875,95.118869897056356" />
    <path d="M 43.268375828433449,82.997886445177329 A 144,144 0 0,1 61.17662350913713,61.176623509137173" />
    <path d="M 95.1188698970563,36.0033379338369 A 144,144 0 0,1 107.89358573942698,29.961347318374749" />
    <path d="M 121.19900647535741,25.200591654561919 A 144,144 0 0,1 134.90699362967746,21.766919621934818" />
    <path d="M 178.68274245272968,3.7704437324484843 A 160,160 0 1,1 163,3" />
  </g>
  <g fill="none" stroke="#000000" stroke-width="2" stroke-linecap="butt">
    <line x1="163" y1="19" x2="163" y2="83" />
    <line x1="163" y1="99" x2="163" y2="131" />
    <line x1="194.21445152258053" y1="6.0743551354831311" x2="187.97156121806441" y2="37.459484108386505" />
    <line x1="209.44554836071399" y1="9.8895462828465952" x2="204.80099352464259" y2="25.200591654561919" />
    <line x1="218.10641426057293" y1="29.96134731837472" x2="199.7376095070486" y2="74.30756487891648" />
    <line x1="193.6146745892072" y1="89.089637399097057" x2="187.49173967136574" y2="103.87170991927765" />
    <line x1="234.11298982650908" y1="56.57188962527421" x2="225.22386609819546" y2="69.875403422114928" />
    <line x1="216.33474236988181" y1="83.178917218955661" x2="207.44561864156816" y2="96.482431015796379" />
    <line x1="253.50966799187808" y1="72.490332008121911" x2="230.88225099390854" y2="95.117749006091429" />
    <line x1="219.5685424949238" y1="106.4314575050762" x2="196.94112549695427" y2="129.05887450304573" />
    <line x1="282.73162417156652" y1="82.997886445177272" x2="269.4281103747258" y2="91.8870101734909" />
    <line x1="242.82108278104434" y1="109.66525763011818" x2="229.51756898420362" y2="118.55438135843181" />
    <line x1="296.03865268162531" y1="107.89358573942707" x2="251.69243512108352" y2="126.26239049295137" />
    <line x1="288.5405158916135" y1="138.02843878193556" x2="272.84795140516178" y2="141.14988393419364" />
    <line x1="323" y1="163" x2="291" y2="163" />
    <line x1="275" y1="163" x2="243" y2="163" />
    <line x1="288.5405158916135" y1="187.97156121806441" x2="257.15538691871012" y2="181.72867091354831" />
    <line x1="296.03865268162531" y1="218.10641426057293" x2="236.91036260090294" y2="193.61467458920717" />
    <line x1="222.12829008072237" y1="187.49173967136574" x2="207.34621756054176" y2="181.3688047535243" />
    <line x1="269.4281103747258" y1="234.11298982650905" x2="242.82108278104437" y2="216.33474236988178" />
    <line x1="230.88225099390857" y1="230.88225099390854" x2="185.62741699796953" y2="185.62741699796953" />
    <line x1="243.0021135548227" y1="282.73162417156652" x2="234.11298982650908" y2="269.4281103747258" />
    <line x1="218.10641426057293" y1="296.03865268162531" x2="205.86054442489007" y2="266.4745076412641" />
    <line x1="184.85011606580639" y1="272.84795140516178" x2="181.72867091354834" y2="257.15538691871012" />
    <line x1="163.00000000000003" y1="323" x2="163" y2="243" />
    <line x1="134.90699362967752" y1="304.23308037806521" x2="138.02843878193556" y2="288.5405158916135" />
    <line x1="141.14988393419361" y1="272.84795140516178" x2="144.27132908645169" y2="257.15538691871012" />
    <line x1="116.55445163928607" y1="316.1104537171534" x2="121.19900647535746" y2="300.79940834543811" />
    <line x1="107.8935857394271" y1="296.03865268162531" x2="120.13945557510996" y2="266.47450764126415" />
    <line x1="132.38532541079283" y1="236.91036260090294" x2="138.50826032863427" y2="222.12829008072237" />
    <line x1="100.77613390180459" y1="256.12459657788509" x2="118.55438135843184" y2="229.51756898420365" />
    <line x1="83.804040507106691" y1="242.19595949289334" x2="95.117749006091444" y2="230.88225099390857" />
    <line x1="106.4314575050762" y1="219.5685424949238" x2="140.37258300203047" y2="185.62741699796953" />
    <line x1="56.57188962527421" y1="234.11298982650908" x2="69.875403422114928" y2="225.22386609819546" />
    <line x1="83.178917218955661" y1="216.33474236988181" x2="96.482431015796379" y2="207.44561864156816" />
    <line x1="29.961347318374749" y1="218.10641426057302" x2="44.743419838555326" y2="211.98347934273156" />
    <line x1="74.3075648789165" y1="199.73760950704866" x2="89.089637399097086" y2="193.61467458920723" />
    <line x1="103.87170991927766" y1="187.49173967136579" x2="118.65378243945824" y2="181.36880475352433" />
    <line x1="21.766919621934846" y1="191.09300637032254" x2="53.152048594838206" y2="184.85011606580642" />
    <line x1="3" y1="163.00000000000003" x2="67" y2="163.00000000000003" />
    <line x1="6.0743551354831311" y1="131.78554847741947" x2="37.459484108386505" y2="138.02843878193556" />
    <line x1="53.152048594838192" y1="141.14988393419364" x2="84.537177567741566" y2="147.39277423870973" />
    <line x1="89.089637399097072" y1="132.3853254107928" x2="103.87170991927766" y2="138.50826032863424" />
    <line x1="29.96486203159273" y1="74.108762716863708" x2="96.482431015796365" y2="118.55438135843185" />
    <line x1="72.4903320081219" y1="72.490332008121939" x2="83.804040507106663" y2="83.804040507106691" />
    <line x1="106.43145750507618" y1="106.43145750507621" x2="129.05887450304573" y2="129.05887450304573" />
    <line x1="61.497074533816658" y1="39.318327461962127" x2="71.647367080434989" y2="51.686494715765917" />
    <line x1="74.108762716863652" y1="29.964862031592759" x2="91.887010173490921" y2="56.57188962527421" />
    <line x1="100.77613390180456" y1="69.875403422114928" x2="118.55438135843183" y2="96.482431015796379" />
    <line x1="101.77065082158553" y1="15.179274798194172" x2="107.89358573942698" y2="29.961347318374749" />
    <line x1="132.38532541079277" y1="89.089637399097086" x2="138.50826032863421" y2="103.87170991927766" />
    <line x1="134.90699362967746" y1="21.766919621934846" x2="138.02843878193554" y2="37.459484108386519" />
    <line x1="141.14988393419358" y1="53.152048594838206" x2="144.27132908645166" y2="68.844613081289893" />
  </g>
</svg>
