<?xml version="1.0" standalone="no"?>
<!DOCTYPE svg PUBLIC "-//W3C//DTD SVG 1.1//EN" "http://www.w3.org/Graphics/SVG/1.1/DTD/svg11.dtd">
<svg width="244" height="244" version="1.1" xmlns="http://www.w3.org/2000/svg">
  <title>15 cells diameter theta maze</title>
  <desc>15 cells diameter theta maze generated by The Maze Generator Website (http://www.mazegenerator.net/).</desc>
  <g fill="none" stroke="#000000" stroke-width="2" stroke-linecap="square">
    <path d="M 106.02943725152286,139.97056274847714 A 24,24 0 1,1 123,147" />
    <path d="M 123,83 A 40,40 0 0,1 138.3073372946036,86.044818699548529" />
    <path d="M 151.2842712474619,94.7157287525381 A 40,40 0 0,1 151.2842712474619,151.2842712474619" />
    <path d="M 138.3073372946036,159.95518130045147 A 40,40 0 0,1 94.7157287525381,151.2842712474619" />
    <path d="M 86.044818699548529,138.3073372946036 A 40,40 0 0,1 86.044818699548529,107.6926627053964" />
    <path d="M 94.7157287525381,94.7157287525381 A 40,40 0 0,1 107.69266270539639,86.044818699548543" />
    <path d="M 101.56972778755494,71.262746179367952 A 56,56 0 0,1 162.59797974644667,83.402020253553331" />
    <path d="M 174.73725382063205,101.56972778755497 A 56,56 0 0,1 179,123" />
    <path d="M 123,179 A 56,56 0 0,1 101.56972778755498,174.73725382063208" />
    <path d="M 83.402020253553346,162.59797974644667 A 56,56 0 0,1 67,123.00000000000001" />
    <path d="M 150.55320713028647,56.48067365918736 A 72,72 0 0,1 163.00105677741135,63.134187914216739" />
    <path d="M 173.91168824543144,72.088311754568579 A 72,72 0 0,1 182.86581208578326,82.998943222588636" />
    <path d="M 195,123 A 72,72 0 0,1 163.00105677741135,182.86581208578326" />
    <path d="M 150.55320713028647,189.51932634081265 A 72,72 0 0,1 123.00000000000001,195" />
    <path d="M 108.95349681483876,193.61654018903261 A 72,72 0 0,1 63.134187914216739,163.00105677741135" />
    <path d="M 56.480673659187374,150.5532071302865 A 72,72 0 0,1 51,123.00000000000001" />
    <path d="M 52.383459810967409,108.95349681483876 A 72,72 0 0,1 63.134187914216724,82.998943222588665" />
    <path d="M 72.088311754568565,72.0883117545686 A 72,72 0 0,1 95.446792869713491,56.480673659187374" />
    <path d="M 105.83205166258067,36.690895324515722 A 88,88 0 0,1 140.16794833741929,36.690895324515722" />
    <path d="M 156.6761420481279,41.698601139006769 A 88,88 0 0,1 185.22539674441617,60.774603255583813" />
    <path d="M 209.30910467548426,105.83205166258071 A 88,88 0 0,1 185.22539674441617,185.22539674441617" />
    <path d="M 171.89018050572497,196.16932588262398 A 88,88 0 0,1 105.83205166258071,209.30910467548426" />
    <path d="M 49.83067411737602,171.890180505725 A 88,88 0 0,1 41.698601139006783,156.67614204812796" />
    <path d="M 36.690895324515722,140.16794833741932 A 88,88 0 0,1 36.690895324515722,105.83205166258071" />
    <path d="M 49.830674117375992,74.10981949427503 A 88,88 0 0,1 89.323857951872043,41.698601139006783" />
    <path d="M 143.28939348967734,20.998330838064035 A 104,104 0 0,1 162.79907696596933,26.916528618826177" />
    <path d="M 180.77930423403862,36.527160320535287 A 104,104 0 0,1 209.4728396794647,65.220695765961366" />
    <path d="M 219.08347138117381,83.200923034030666 A 104,104 0 0,1 225.00166916193598,143.28939348967734" />
    <path d="M 209.47283967946473,180.77930423403859 A 104,104 0 0,1 123.00000000000001,227" />
    <path d="M 102.71060651032265,225.00166916193598 A 104,104 0 0,1 36.527160320535287,180.77930423403862" />
    <path d="M 26.916528618826206,162.79907696596939 A 104,104 0 0,1 20.998330838064035,143.28939348967737" />
    <path d="M 19,123.00000000000001 A 104,104 0 0,1 36.527160320535273,65.220695765961409" />
    <path d="M 83.200923034030609,26.916528618826206 A 104,104 0 0,1 102.71060651032261,20.998330838064049" />
    <path d="M 146.41083864193539,5.3057663516123483 A 120,120 0 1,1 123,3" />
  </g>
  <g fill="none" stroke="#000000" stroke-width="2" stroke-linecap="butt">
    <line x1="123" y1="3" x2="123" y2="35" />
    <line x1="123" y1="51" x2="123" y2="67" />
    <line x1="123" y1="83" x2="123" y2="99" />
    <line x1="140.16794833741929" y1="36.690895324515722" x2="137.04650318516124" y2="52.383459810967409" />
    <line x1="168.92201188381077" y1="12.134456098645586" x2="150.55320713028647" y2="56.48067365918736" />
    <line x1="173.91168824543144" y1="72.088311754568565" x2="151.2842712474619" y2="94.7157287525381" />
    <line x1="209.4728396794647" y1="65.220695765961352" x2="182.86581208578326" y2="82.998943222588636" />
    <line x1="219.08347138117381" y1="83.200923034030666" x2="174.73725382063205" y2="101.56972778755497" />
    <line x1="209.30910467548426" y1="105.83205166258071" x2="193.61654018903261" y2="108.95349681483876" />
    <line x1="195" y1="123" x2="179" y2="123" />
    <line x1="219.08347138117381" y1="162.79907696596933" x2="204.30139886099323" y2="156.6761420481279" />
    <line x1="174.73725382063205" y1="144.43027221244503" x2="159.95518130045147" y2="138.3073372946036" />
    <line x1="196.53910524340097" y1="196.53910524340094" x2="185.22539674441617" y2="185.22539674441617" />
    <line x1="173.91168824543144" y1="173.91168824543144" x2="151.2842712474619" y2="151.2842712474619" />
    <line x1="171.890180505725" y1="196.16932588262398" x2="163.00105677741135" y2="182.86581208578326" />
    <line x1="150.55320713028647" y1="189.51932634081265" x2="138.3073372946036" y2="159.95518130045147" />
    <line x1="123.00000000000001" y1="243" x2="123.00000000000001" y2="227" />
    <line x1="123.00000000000001" y1="195" x2="123" y2="179" />
    <line x1="123" y1="163" x2="123" y2="147" />
    <line x1="102.71060651032265" y1="225.00166916193598" x2="108.95349681483876" y2="193.61654018903261" />
    <line x1="89.3238579518721" y1="204.30139886099323" x2="95.446792869713548" y2="189.51932634081265" />
    <line x1="65.2206957659614" y1="209.47283967946473" x2="74.10981949427503" y2="196.16932588262398" />
    <line x1="60.774603255583827" y1="185.2253967444162" x2="72.088311754568579" y2="173.91168824543144" />
    <line x1="83.402020253553346" y1="162.59797974644667" x2="94.7157287525381" y2="151.2842712474619" />
    <line x1="36.5271603205353" y1="180.77930423403862" x2="49.83067411737602" y2="171.890180505725" />
    <line x1="12.134456098645615" y1="168.92201188381085" x2="26.916528618826206" y2="162.79907696596939" />
    <line x1="41.698601139006783" y1="156.67614204812796" x2="56.480673659187374" y2="150.5532071302865" />
    <line x1="20.998330838064049" y1="143.28939348967737" x2="36.690895324515736" y2="140.16794833741932" />
    <line x1="3" y1="123.00000000000003" x2="19" y2="123.00000000000001" />
    <line x1="51" y1="123.00000000000001" x2="67" y2="123.00000000000001" />
    <line x1="83" y1="123.00000000000001" x2="99" y2="123" />
    <line x1="36.690895324515722" y1="105.83205166258071" x2="52.383459810967409" y2="108.95349681483876" />
    <line x1="26.916528618826192" y1="83.200923034030637" x2="41.698601139006783" y2="89.323857951872071" />
    <line x1="56.48067365918736" y1="95.446792869713519" x2="86.044818699548529" y2="107.6926627053964" />
    <line x1="49.830674117376006" y1="74.10981949427503" x2="63.134187914216724" y2="82.998943222588665" />
    <line x1="49.460894756599046" y1="49.460894756599075" x2="60.774603255583806" y2="60.774603255583834" />
    <line x1="72.088311754568565" y1="72.0883117545686" x2="94.7157287525381" y2="94.7157287525381" />
    <line x1="56.331572037647732" y1="23.223646523694569" x2="65.220695765961381" y2="36.5271603205353" />
    <line x1="83.200923034030609" y1="26.916528618826206" x2="95.446792869713491" y2="56.480673659187374" />
    <line x1="105.83205166258067" y1="36.690895324515736" x2="108.95349681483873" y2="52.383459810967423" />
  </g>
</svg>
